<svg xmlns="http://www.w3.org/2000/svg" width="20" height="18.749" viewBox="0 0 20 18.749">
  <g id="home" transform="translate(0 -16.017)">
    <path id="Path_24" data-name="Path 24" d="M54.928,204.477H41.779A1.841,1.841,0,0,1,40,202.584v-9.962a.62.62,0,1,1,1.238,0v9.962a.56.56,0,0,0,.541.576H54.928a.56.56,0,0,0,.541-.576v-9.962a.62.62,0,1,1,1.238,0v9.962A1.841,1.841,0,0,1,54.928,204.477Z" transform="translate(-38.353 -169.712)" fill="#989898"/>
    <path id="Path_25" data-name="Path 25" d="M19.375,26.223a.607.607,0,0,1-.442-.193L11.16,17.839a1.584,1.584,0,0,0-2.32,0L1.067,26.03a.6.6,0,0,1-.884,0,.684.684,0,0,1,0-.931l7.773-8.191a2.79,2.79,0,0,1,4.088,0L19.817,25.1a.684.684,0,0,1,0,.931.607.607,0,0,1-.442.193Z" transform="translate(0)" fill="#989898"/>
    <path id="Path_26" data-name="Path 26" d="M181.927,296.545h-5.269a.659.659,0,0,1-.659-.659v-5.845a2.061,2.061,0,0,1,2.058-2.058h2.47a2.06,2.06,0,0,1,2.058,2.058v5.845A.659.659,0,0,1,181.927,296.545Zm-4.61-1.317h3.952v-5.186a.742.742,0,0,0-.741-.741h-2.47a.742.742,0,0,0-.741.741Z" transform="translate(-169.293 -261.779)" fill="#989898"/>
  </g>
</svg>
