<svg xmlns="http://www.w3.org/2000/svg" width="20" height="19.957" viewBox="0 0 20 19.957">
  <g id="payment" transform="translate(0 -0.516)">
    <g id="Group_2" data-name="Group 2" transform="translate(0 0.516)">
      <g id="Group_1" data-name="Group 1" transform="translate(0 0)">
        <rect id="Rectangle_54" data-name="Rectangle 54" width="2.086" height="0.695" transform="translate(14.298 13.3)" fill="#989898"/>
        <rect id="Rectangle_55" data-name="Rectangle 55" width="2.086" height="0.695" transform="translate(11.638 13.3)" fill="#989898"/>
        <rect id="Rectangle_56" data-name="Rectangle 56" width="2.086" height="0.695" transform="translate(8.978 13.3)" fill="#989898"/>
        <path id="Path_27" data-name="Path 27" d="M19.7,7.422,13.094.812a1,1,0,0,0-.71-.3h0a.988.988,0,0,0-.7.3L4.665,7.822H1a1,1,0,0,0-1,1v9.353a1,1,0,0,0,1,1H5.951l1,1a1,1,0,0,0,.71.3h0a.989.989,0,0,0,.7-.3l1-1h7.672a1,1,0,0,0,1-1V10.506L19.7,8.842a1,1,0,0,0,0-1.419Zm-4.249-3.3-3.7,3.7H8.914L14.036,2.7Zm-3.3-2.835a.329.329,0,0,1,.466-.006l.006.006.943.944-5.6,5.6H5.61ZM7.893,19.706a.325.325,0,0,1-.234.1.334.334,0,0,1-.238-.1L6.9,19.179H8.42Zm9.477-1.529a.334.334,0,0,1-.334.334H1a.334.334,0,0,1-.334-.334V13.5h16.7Zm0-5.345H.668v-2h16.7Zm0-2.672H.668V8.824A.334.334,0,0,1,1,8.49H17.036a.334.334,0,0,1,.334.334Zm1.862-1.793h0L18.038,9.561V8.824a1,1,0,0,0-1-1H12.694L15.926,4.59l3.3,3.3a.334.334,0,0,1,.1.239A.327.327,0,0,1,19.232,8.368Z" transform="translate(0 -0.516)" fill="#989898"/>
        <path id="Path_28" data-name="Path 28" d="M26.1,361.933a1.387,1.387,0,0,0,.142-.142,1.379,1.379,0,0,0,1.83.236,1.414,1.414,0,0,0,.6-1.146,1.391,1.391,0,0,0-1.391-1.391,1.058,1.058,0,0,0-.206.017l-.009,0h-.01a1.373,1.373,0,0,0-.818.462,1.391,1.391,0,1,0-.142,1.962Zm1.1-1.741a.419.419,0,0,1,.088-.007.7.7,0,0,1,.7.7.682.682,0,0,1-.137.408c-.013.017-.022.035-.037.053l-.009.007a.691.691,0,1,1-.6-1.156Zm-2-.007a.7.7,0,1,1-.7.7A.7.7,0,0,1,25.2,360.185Z" transform="translate(-22.761 -344.704)" fill="#989898"/>
      </g>
    </g>
  </g>
</svg>
