<svg xmlns="http://www.w3.org/2000/svg" width="20.481" height="15.035" viewBox="0 0 20.481 15.035">
  <g id="team" transform="translate(0 -68.066)">
    <g id="Group_4" data-name="Group 4" transform="translate(15.711 74.482)">
      <g id="Group_3" data-name="Group 3" transform="translate(0 0)">
        <path id="Path_29" data-name="Path 29" d="M395.11,228.8a5.854,5.854,0,0,0-2.059-.352.3.3,0,1,0,0,.6,5.181,5.181,0,0,1,1.791.289.3.3,0,0,0,.268-.537Z" transform="translate(-392.751 -228.449)" fill="#989898"/>
      </g>
    </g>
    <g id="Group_6" data-name="Group 6" transform="translate(0 68.066)">
      <g id="Group_5" data-name="Group 5" transform="translate(0 0)">
        <path id="Path_30" data-name="Path 30" d="M19.565,79.105l-1.239-.354a.126.126,0,0,1-.091-.12v-.414a2.255,2.255,0,0,0,.287-.235,2.207,2.207,0,0,0,.676-1.6v-.571l.12-.24a1.914,1.914,0,0,0,.2-.851V73.178a.3.3,0,0,0-.3-.3H16.332a1.906,1.906,0,0,0-1.9,1.9V74.8a1.591,1.591,0,0,0,.167.708l.154.307v.49a2.341,2.341,0,0,0,.962,1.893v.433c0,.067,0,.095-.248.165l-.6.173-1.749-.636a.3.3,0,0,0-.082-.23l-.559-.587v-.986c.059-.049.117-.1.174-.152a3.521,3.521,0,0,0,1.109-2.56v-.787a3.468,3.468,0,0,0,.321-1.458V68.366a.3.3,0,0,0-.3-.3H9.282a2.87,2.87,0,0,0-2.866,2.866v.642a3.468,3.468,0,0,0,.321,1.458v.677a3.666,3.666,0,0,0,1.283,2.8v1.009l-.559.587a.3.3,0,0,0-.082.23L5.533,79a1.573,1.573,0,0,0-.371.194l-.29-.145a2.291,2.291,0,0,0,1.149-.93.3.3,0,0,0,0-.268,5.33,5.33,0,0,1-.264-1.863c-.007-.212-.014-.412-.026-.591a2.61,2.61,0,0,0-2.545-2.524A2.61,2.61,0,0,0,.642,75.4c-.013.178-.019.379-.026.591a5.33,5.33,0,0,1-.264,1.862.3.3,0,0,0,0,.268,2.291,2.291,0,0,0,1.15.929l-.805.4A1.256,1.256,0,0,0,0,80.585V82.8a.3.3,0,0,0,.6,0V80.585a.659.659,0,0,1,.366-.592l1-.5.349.331a1.262,1.262,0,0,0,1.739,0l.349-.331.327.163a1.58,1.58,0,0,0-.241.838V82.8a.3.3,0,0,0,.6,0V80.492a.986.986,0,0,1,.647-.924l1.946-.708.81,1.215a.619.619,0,0,0,.455.273q.031,0,.062,0a.618.618,0,0,0,.438-.182l.494-.494V82.8a.3.3,0,1,0,.6,0V79.676l.494.494a.618.618,0,0,0,.438.182q.031,0,.062,0a.618.618,0,0,0,.455-.273l.81-1.215,1.946.708a.986.986,0,0,1,.647.924V82.8a.3.3,0,1,0,.6,0V80.492a1.586,1.586,0,0,0-.444-1.1l.074-.021a1.646,1.646,0,0,0,.279-.1l.766.766V82.8a.3.3,0,1,0,.6,0V80.039l.761-.761a.713.713,0,0,0,.128.051l1.239.354a.665.665,0,0,1,.48.637V82.8a.3.3,0,1,0,.6,0V80.319A1.268,1.268,0,0,0,19.565,79.105Zm-17.641-.53a2.157,2.157,0,0,1-.963-.618,3.307,3.307,0,0,0,.171-.718,2.237,2.237,0,0,0,.792.977Zm1.719.812a.662.662,0,0,1-.913,0l-.279-.265a.621.621,0,0,0,.073-.293v-.32a2.231,2.231,0,0,0,1.325,0v.32a.621.621,0,0,0,.073.293ZM3.187,78.01a1.626,1.626,0,0,1-1.625-1.625.3.3,0,0,0-.349-.3l0-.077c.007-.206.013-.4.025-.568a2.227,2.227,0,0,1,.607-1.4,1.864,1.864,0,0,1,2.679,0,2.227,2.227,0,0,1,.607,1.4c.012.167.018.362.025.568l0,.054a2.7,2.7,0,0,0-1.482-1.083A3.765,3.765,0,0,0,2.537,74.8a.3.3,0,0,0-.208.092l-.541.561a.3.3,0,1,0,.432.416l.45-.467a2.427,2.427,0,0,1,2.121,1.233A1.621,1.621,0,0,1,3.187,78.01Zm1.262.566v-.358a2.219,2.219,0,0,0,.792-.978,3.3,3.3,0,0,0,.171.717A2.167,2.167,0,0,1,4.449,78.577Zm2.887-4.867v-.744a.3.3,0,0,0-.03-.13,2.878,2.878,0,0,1-.291-1.261v-.642a2.269,2.269,0,0,1,2.266-2.266h4.191v2.908a2.878,2.878,0,0,1-.291,1.261.3.3,0,0,0-.03.13v.854a2.88,2.88,0,0,1-.92,2.122,2.984,2.984,0,0,1-.23.2l-.005,0a2.885,2.885,0,0,1-1.947.581A2.972,2.972,0,0,1,7.336,73.709Zm1.689,6.037a.019.019,0,0,1-.017.006.019.019,0,0,1-.015-.009l-.933-1.4.3-.315L9.776,79Zm1.219-1.158L8.62,77.478v-.56a3.378,3.378,0,0,0,1.392.4q.119.008.236.008a3.475,3.475,0,0,0,1.622-.4v.548Zm1.251,1.155a.019.019,0,0,1-.015.009.018.018,0,0,1-.017-.006L10.712,79l1.415-.968.3.315Zm5.478-.253-.681-.681a.823.823,0,0,0,.019-.178V78.5a2.1,2.1,0,0,0,.594.1h.069a2.229,2.229,0,0,0,.661-.1v.121a.717.717,0,0,0,.022.175ZM18.1,77.552a1.612,1.612,0,0,1-1.182.458,1.679,1.679,0,0,1-1.575-1.7v-.561a.3.3,0,0,0-.032-.134l-.185-.371a.988.988,0,0,1-.1-.44v-.018a1.305,1.305,0,0,1,1.3-1.3h2.587v1.246a1.311,1.311,0,0,1-.138.583l-.151.3a.3.3,0,0,0-.032.134v.642A1.612,1.612,0,0,1,18.1,77.552Z" transform="translate(0 -68.066)" fill="#989898"/>
      </g>
    </g>
    <g id="Group_8" data-name="Group 8" transform="translate(18.598 80.576)">
      <g id="Group_7" data-name="Group 7">
        <path id="Path_31" data-name="Path 31" d="M465.223,380.814a.3.3,0,0,0-.3.3v1.925a.3.3,0,1,0,.6,0v-1.925A.3.3,0,0,0,465.223,380.814Z" transform="translate(-464.923 -380.814)" fill="#989898"/>
      </g>
    </g>
    <g id="Group_10" data-name="Group 10" transform="translate(1.283 80.973)">
      <g id="Group_9" data-name="Group 9">
        <path id="Path_32" data-name="Path 32" d="M32.377,390.728a.3.3,0,0,0-.3.3v1.528a.3.3,0,1,0,.6,0v-1.528A.3.3,0,0,0,32.377,390.728Z" transform="translate(-32.077 -390.728)" fill="#989898"/>
      </g>
    </g>
    <g id="Group_12" data-name="Group 12" transform="translate(7.699 70.792)">
      <g id="Group_11" data-name="Group 11">
        <path id="Path_33" data-name="Path 33" d="M197.463,137.094c-1.135-1.135-3.509-.918-4.477-.772a.616.616,0,0,0-.526.614v.691a.3.3,0,0,0,.6,0v-.691a.02.02,0,0,1,.016-.02,9.477,9.477,0,0,1,1.949-.1,3.1,3.1,0,0,1,2.014.7.3.3,0,0,0,.424-.424Z" transform="translate(-192.46 -136.203)" fill="#989898"/>
      </g>
    </g>
    <g id="Group_14" data-name="Group 14" transform="translate(6.416 81.218)">
      <g id="Group_13" data-name="Group 13">
        <path id="Path_34" data-name="Path 34" d="M160.684,396.853a.3.3,0,0,0-.3.3v1.283a.3.3,0,0,0,.6,0v-1.283A.3.3,0,0,0,160.684,396.853Z" transform="translate(-160.384 -396.853)" fill="#989898"/>
      </g>
    </g>
    <g id="Group_16" data-name="Group 16" transform="translate(13.473 81.218)">
      <g id="Group_15" data-name="Group 15">
        <path id="Path_35" data-name="Path 35" d="M337.106,396.853a.3.3,0,0,0-.3.3v1.283a.3.3,0,0,0,.6,0v-1.283A.3.3,0,0,0,337.106,396.853Z" transform="translate(-336.806 -396.853)" fill="#989898"/>
      </g>
    </g>
  </g>
</svg>
