<svg xmlns="http://www.w3.org/2000/svg" width="261.329" height="121.709" viewBox="0 0 261.329 121.709">
  <g id="undraw_empty_street_sfxm" transform="translate(0 3.648)">
    <rect id="Rectangle_2" data-name="Rectangle 2" width="7.898" height="27.341" transform="translate(228.365 47.548)" fill="#f2f2f2"/>
    <path id="Path_1" data-name="Path 1" d="M693.319,201.906l-19.21-22.854-38.561.352-23.392,22.784.473.3h-.169v47.391h80.807V202.492Z" transform="translate(-451.839 -132.16)" fill="#f2f2f2"/>
    <path id="Path_2" data-name="Path 2" d="M781.153,179.238l-24,28.136V250.02h43.138v-48Z" transform="translate(-558.863 -132.297)" fill="#bbbaba"/>
    <rect id="Rectangle_3" data-name="Rectangle 3" width="8.81" height="7.787" transform="translate(215.606 94.139)" fill="#3f3d56"/>
    <rect id="Rectangle_4" data-name="Rectangle 4" width="8.81" height="7.663" transform="translate(215.606 80.661)" fill="#3f3d56"/>
    <rect id="Rectangle_5" data-name="Rectangle 5" width="8.81" height="7.787" transform="translate(215.606 94.139)" fill="#fff"/>
    <rect id="Rectangle_6" data-name="Rectangle 6" width="8.81" height="7.663" transform="translate(215.606 80.661)" fill="#fff"/>
    <rect id="Rectangle_7" data-name="Rectangle 7" width="8.81" height="7.787" transform="translate(176.455 92.073)" fill="#fff"/>
    <rect id="Rectangle_8" data-name="Rectangle 8" width="8.81" height="7.663" transform="translate(176.455 78.595)" fill="#fff"/>
    <rect id="Rectangle_9" data-name="Rectangle 9" width="7.898" height="27.341" transform="translate(166.036 47.548)" fill="#a54d4d"/>
    <path id="Path_3" data-name="Path 3" d="M455.319,201.906l-19.21-22.854-38.561.352-23.392,22.784.473.3h-.169v47.391h80.807V202.492Z" transform="translate(-276.169 -132.16)" fill="#e26e54"/>
    <path id="Path_4" data-name="Path 4" d="M543.153,179.238l-24,28.136V250.02h43.138v-48Z" transform="translate(-383.193 -132.297)" fill="#c25555"/>
    <rect id="Rectangle_10" data-name="Rectangle 10" width="8.81" height="7.787" transform="translate(153.276 94.139)" fill="#3f3d56"/>
    <rect id="Rectangle_11" data-name="Rectangle 11" width="8.81" height="7.663" transform="translate(153.276 80.661)" fill="#3f3d56"/>
    <rect id="Rectangle_12" data-name="Rectangle 12" width="8.81" height="7.787" transform="translate(153.276 94.139)" fill="#a54d4d"/>
    <rect id="Rectangle_13" data-name="Rectangle 13" width="8.81" height="7.663" transform="translate(153.276 80.661)" fill="#a54d4d"/>
    <rect id="Rectangle_14" data-name="Rectangle 14" width="8.81" height="7.787" transform="translate(114.125 92.073)" fill="#a54d4d"/>
    <rect id="Rectangle_15" data-name="Rectangle 15" width="8.81" height="7.663" transform="translate(114.125 78.595)" fill="#a54d4d"/>
    <rect id="Rectangle_16" data-name="Rectangle 16" width="10.554" height="36.534" transform="translate(99.558 23.953)" fill="#f2f2f2"/>
    <path id="Path_5" data-name="Path 5" d="M141.4,118.65l-25.67-30.538-51.526.471L32.951,119.028l.631.406h-.225v63.325H141.335V119.434Z" transform="translate(-24.321 -65.036)" fill="#f2f2f2"/>
    <path id="Path_6" data-name="Path 6" d="M258.771,88.36l-32.069,37.6v56.985h57.642V118.8Z" transform="translate(-167.331 -65.219)" fill="#bbbaba"/>
    <rect id="Rectangle_17" data-name="Rectangle 17" width="11.772" height="10.405" transform="translate(82.509 86.209)" fill="#3f3d56"/>
    <rect id="Rectangle_18" data-name="Rectangle 18" width="11.772" height="10.24" transform="translate(82.509 68.199)" fill="#3f3d56"/>
    <rect id="Rectangle_19" data-name="Rectangle 19" width="11.772" height="10.405" transform="translate(82.509 86.209)" fill="#fff"/>
    <rect id="Rectangle_20" data-name="Rectangle 20" width="11.772" height="10.24" transform="translate(82.509 68.199)" fill="#fff"/>
    <rect id="Rectangle_21" data-name="Rectangle 21" width="11.772" height="10.405" transform="translate(30.193 83.448)" fill="#fff"/>
    <rect id="Rectangle_22" data-name="Rectangle 22" width="11.772" height="10.24" transform="translate(30.193 65.438)" fill="#fff"/>
    <rect id="Rectangle_23" data-name="Rectangle 23" width="252.448" height="0.524" transform="translate(0 117.489)" fill="#3f3d56"/>
    <ellipse id="Ellipse_1" data-name="Ellipse 1" cx="7.621" cy="15.55" rx="7.621" ry="15.55" transform="translate(32.153 76.759)" fill="#3f3d56"/>
    <path id="Path_7" data-name="Path 7" d="M251.786,570.7c-3.052-18.313-.031-36.559,0-36.741l.594.1c-.031.181-3.035,18.332,0,36.542Z" transform="translate(-211.309 -452.942)" fill="#6c63ff"/>
    <rect id="Rectangle_24" data-name="Rectangle 24" width="7.815" height="0.602" transform="translate(39.591 92.651) rotate(-28.142)" fill="#6c63ff"/>
    <rect id="Rectangle_25" data-name="Rectangle 25" width="0.602" height="7.815" transform="translate(32.318 91.342) rotate(-61.842)" fill="#6c63ff"/>
    <ellipse id="Ellipse_2" data-name="Ellipse 2" cx="14.905" cy="30.413" rx="14.905" ry="30.413" transform="translate(6.558 37.915)" fill="#f7c201"/>
    <path id="Path_8" data-name="Path 8" d="M181.858,473.138c-5.962-35.77-.06-71.41,0-71.766l.594.1c-.06.355-5.944,35.9,0,71.567Z" transform="translate(-158.735 -355.076)" fill="#3f3d56"/>
    <rect id="Rectangle_26" data-name="Rectangle 26" width="15.286" height="0.602" transform="translate(21.242 69.251) rotate(-28.142)" fill="#3f3d56"/>
    <rect id="Rectangle_27" data-name="Rectangle 27" width="0.602" height="15.286" transform="translate(7.018 66.185) rotate(-61.842)" fill="#3f3d56"/>
    <ellipse id="Ellipse_3" data-name="Ellipse 3" cx="20.397" cy="41.618" rx="20.397" ry="41.618" transform="translate(36.369 8.405)" fill="#f7c201"/>
    <path id="Path_9" data-name="Path 9" d="M316.649,398.722c-8.155-48.931-.082-97.683,0-98.169l.594.1c-.082.486-8.138,49.142,0,97.97Z" transform="translate(-257.502 -280.661)" fill="#3f3d56"/>
    <rect id="Rectangle_28" data-name="Rectangle 28" width="20.917" height="0.602" transform="translate(56.516 51.384) rotate(-28.142)" fill="#3f3d56"/>
    <rect id="Rectangle_29" data-name="Rectangle 29" width="0.602" height="20.917" transform="matrix(0.472, -0.882, 0.882, 0.472, 37.05, 46.992)" fill="#3f3d56"/>
    <ellipse id="Ellipse_4" data-name="Ellipse 4" cx="7.621" cy="15.55" rx="7.621" ry="15.55" transform="translate(220.492 76.759)" fill="#3f3d56"/>
    <path id="Path_10" data-name="Path 10" d="M967.738,570.7c3.052-18.313.031-36.559,0-36.741l-.594.1c.031.181,3.035,18.332,0,36.542Z" transform="translate(-740.328 -452.942)" fill="#6c63ff"/>
    <rect id="Rectangle_30" data-name="Rectangle 30" width="0.602" height="7.815" transform="translate(221.118 89.497) rotate(-61.858)" fill="#6c63ff"/>
    <rect id="Rectangle_31" data-name="Rectangle 31" width="7.815" height="0.602" transform="translate(228.393 94.501) rotate(-28.158)" fill="#6c63ff"/>
    <ellipse id="Ellipse_5" data-name="Ellipse 5" cx="14.905" cy="30.413" rx="14.905" ry="30.413" transform="translate(231.518 37.915)" fill="#f7c201"/>
    <path id="Path_11" data-name="Path 11" d="M1034.006,473.138c5.962-35.77.06-71.41,0-71.766l-.594.1c.06.355,5.944,35.9,0,71.567Z" transform="translate(-789.241 -355.076)" fill="#3f3d56"/>
    <rect id="Rectangle_32" data-name="Rectangle 32" width="0.602" height="15.286" transform="translate(232.88 62.574) rotate(-61.858)" fill="#3f3d56"/>
    <rect id="Rectangle_33" data-name="Rectangle 33" width="15.286" height="0.602" transform="translate(247.108 72.865) rotate(-28.158)" fill="#3f3d56"/>
    <ellipse id="Ellipse_6" data-name="Ellipse 6" cx="20.397" cy="41.618" rx="20.397" ry="41.618" transform="translate(190.725 8.405)" fill="#f7c201"/>
    <path id="Path_12" data-name="Path 12" d="M896.45,398.722c8.155-48.931.082-97.683,0-98.169l-.594.1c.082.486,8.138,49.142,0,97.97Z" transform="translate(-687.71 -280.661)" fill="#3f3d56"/>
    <rect id="Rectangle_34" data-name="Rectangle 34" width="0.602" height="20.917" transform="translate(192.641 42.051) rotate(-61.858)" fill="#3f3d56"/>
    <rect id="Rectangle_35" data-name="Rectangle 35" width="20.917" height="0.602" transform="matrix(0.882, -0.472, 0.472, 0.882, 212.11, 56.333)" fill="#3f3d56"/>
    <path id="Path_13" data-name="Path 13" d="M685.9,323.125l6.014-4.466c-4.672-.479-6.591,1.887-7.377,3.76-3.65-1.407-7.623.437-7.623.437l12.032,4.056A8.54,8.54,0,0,0,685.9,323.125Z" transform="translate(-526.109 -298.704)" fill="#bbbaba"/>
    <path id="Path_14" data-name="Path 14" d="M460.9,258.473l6.014-4.81c-4.672-.515-6.592,2.032-7.377,4.049-3.65-1.516-7.623.471-7.623.471l12.032,4.368A9.1,9.1,0,0,0,460.9,258.473Z" transform="translate(-360.035 -246.001)" fill="#bbbaba"/>
    <path id="Path_15" data-name="Path 15" d="M827.9,229.473l6.014-4.81c-4.672-.515-6.591,2.033-7.377,4.049-3.65-1.516-7.623.471-7.623.471l12.032,4.368A9.106,9.106,0,0,0,827.9,229.473Z" transform="translate(-630.921 -228.244)" fill="#bbbaba"/>
    <path id="Path_16" data-name="Path 16" d="M827.641,660.173a3.646,3.646,0,0,0-1.826.49,3.924,3.924,0,0,0-6.555,2.915h12.034A3.664,3.664,0,0,0,827.641,660.173Z" transform="translate(-631.174 -545.714)" fill="#3f3d56"/>
    <path id="Path_17" data-name="Path 17" d="M360.64,660.173a3.646,3.646,0,0,0-1.826.49,3.924,3.924,0,0,0-6.555,2.915h12.034A3.664,3.664,0,0,0,360.64,660.173Z" transform="translate(-286.476 -545.714)" fill="#3f3d56"/>
    <path id="Path_18" data-name="Path 18" d="M599.64,660.173a3.645,3.645,0,0,0-1.826.49,3.924,3.924,0,0,0-6.555,2.915h12.034A3.664,3.664,0,0,0,599.64,660.173Z" transform="translate(-462.884 -545.714)" fill="#3f3d56"/>
    <path id="Path_19" data-name="Path 19" d="M373.909,404.228H339.191v1.12h5.415v10.639h1.12V405.348h21.089v10.639h1.12V405.348h5.974Z" transform="translate(-250.361 -298.365)" fill="#3f3d56"/>
    <rect id="Rectangle_36" data-name="Rectangle 36" width="34.718" height="1.12" transform="translate(88.899 102.512)" fill="#3f3d56"/>
    <rect id="Rectangle_37" data-name="Rectangle 37" width="34.718" height="1.12" transform="translate(88.899 99.713)" fill="#3f3d56"/>
    <rect id="Rectangle_38" data-name="Rectangle 38" width="34.718" height="1.12" transform="translate(88.899 96.913)" fill="#3f3d56"/>
    <path id="Path_20" data-name="Path 20" d="M580.909,404.228H546.191v1.12h5.415v10.639h1.12V405.348h21.089v10.639h1.12V405.348h5.974Z" transform="translate(-403.149 -298.365)" fill="#3f3d56"/>
    <rect id="Rectangle_39" data-name="Rectangle 39" width="34.718" height="1.12" transform="translate(143.11 102.512)" fill="#3f3d56"/>
    <rect id="Rectangle_40" data-name="Rectangle 40" width="34.718" height="1.12" transform="translate(143.11 99.713)" fill="#3f3d56"/>
    <rect id="Rectangle_41" data-name="Rectangle 41" width="34.718" height="1.12" transform="translate(143.11 96.913)" fill="#3f3d56"/>
  </g>
</svg>
